<svg width="57" height="16" viewBox="0 0 57 16" fill="none" xmlns="http://www.w3.org/2000/svg">
<path d="M3.54419 12.1723L0 3.89197H2.36809L4.64082 9.40692L6.89766 3.89197H9.21807L5.65799 12.1723H3.54419Z" fill="#FF5454"/>
<path d="M10.0775 12.1723V3.89197H12.2549V12.1723H10.0775ZM11.1583 2.90659C10.8192 2.90659 10.5279 2.78474 10.2842 2.54104C10.0405 2.29735 9.91861 2.00597 9.91861 1.66692C9.91861 1.31727 10.0405 1.02589 10.2842 0.79279C10.5279 0.549094 10.8192 0.427246 11.1583 0.427246C11.5079 0.427246 11.7993 0.549094 12.0324 0.79279C12.2761 1.02589 12.398 1.31727 12.398 1.66692C12.398 2.00597 12.2761 2.29735 12.0324 2.54104C11.7993 2.78474 11.5079 2.90659 11.1583 2.90659Z" fill="#FF5454"/>
<path d="M18.1217 15.5735C17.486 15.5735 16.8715 15.5046 16.2781 15.3669C15.6848 15.2397 15.1497 15.0543 14.6729 14.8106L15.4358 13.1259C15.8914 13.3484 16.3364 13.5127 16.7708 13.6186C17.2052 13.7246 17.6397 13.7776 18.0741 13.7776C18.7204 13.7776 19.2078 13.6398 19.5362 13.3643C19.8753 13.0888 20.0448 12.6756 20.0448 12.1247V11.473C19.3667 11.971 18.6091 12.22 17.7721 12.22C16.988 12.22 16.2781 12.0346 15.6424 11.6638C15.0173 11.2823 14.514 10.7684 14.1326 10.1221C13.7617 9.47579 13.5763 8.76059 13.5763 7.97653C13.5763 7.19246 13.7617 6.48256 14.1326 5.84684C14.514 5.21111 15.0279 4.70782 15.6742 4.33698C16.3205 3.95554 17.041 3.76482 17.8357 3.76482C18.2383 3.76482 18.6303 3.8231 19.0118 3.93965C19.3932 4.0562 19.7482 4.22043 20.0766 4.43234V3.89197H22.2222V12.1564C22.2222 13.2478 21.8673 14.0901 21.1574 14.6835C20.4581 15.2768 19.4462 15.5735 18.1217 15.5735ZM18.1059 10.3764C18.5085 10.3764 18.874 10.3128 19.2025 10.1857C19.531 10.0479 19.8117 9.85723 20.0448 9.61353V6.37131C19.8117 6.13821 19.5257 5.95809 19.1866 5.83094C18.8581 5.6932 18.5032 5.62433 18.1217 5.62433C17.6661 5.62433 17.2582 5.73028 16.898 5.94219C16.5377 6.14351 16.2516 6.42429 16.0397 6.78454C15.8278 7.13419 15.7219 7.53152 15.7219 7.97653C15.7219 8.43213 15.8225 8.84006 16.0238 9.2003C16.2358 9.56055 16.5218 9.84663 16.8821 10.0585C17.2529 10.2704 17.6608 10.3764 18.1059 10.3764Z" fill="#FF5454"/>
<path d="M23.9376 12.1723V3.89197H26.1149V4.81378C26.3798 4.45353 26.6977 4.17805 27.0685 3.98733C27.4394 3.79661 27.8579 3.70125 28.3241 3.70125C28.7267 3.71185 29.0287 3.77542 29.23 3.89197V5.79916C29.0711 5.72499 28.8962 5.67201 28.7055 5.64022C28.5148 5.59784 28.3188 5.57665 28.1175 5.57665C27.6937 5.57665 27.3069 5.68261 26.9573 5.89452C26.6076 6.10642 26.3268 6.40839 26.1149 6.80043V12.1723H23.9376Z" fill="#FF5454"/>
<path d="M32.8307 12.3154C32.2373 12.3154 31.7129 12.2094 31.2573 11.9975C30.8016 11.775 30.4467 11.473 30.1924 11.0916C29.9381 10.7102 29.811 10.2704 29.811 9.77246C29.811 8.9778 30.1076 8.36326 30.701 7.92885C31.3049 7.48384 32.1314 7.26133 33.1803 7.26133C33.9008 7.26133 34.5789 7.37258 35.2147 7.59509V6.99115C35.2147 6.51435 35.0663 6.1541 34.7697 5.91041C34.473 5.66671 34.0386 5.54486 33.4664 5.54486C33.1168 5.54486 32.7406 5.60314 32.338 5.71969C31.9354 5.82564 31.4692 5.99517 30.9394 6.22827L30.1447 4.62306C30.8016 4.32638 31.4268 4.10388 32.0201 3.95554C32.6241 3.8072 33.228 3.73304 33.832 3.73304C34.9445 3.73304 35.808 4.00322 36.4226 4.54359C37.0477 5.07337 37.3602 5.82564 37.3602 6.80043V12.1723H35.2147V11.5843C34.8756 11.8386 34.5101 12.024 34.118 12.1406C33.726 12.2571 33.2969 12.3154 32.8307 12.3154ZM31.8771 9.72478C31.8771 10.0426 32.0148 10.2969 32.2903 10.4877C32.5658 10.6678 32.9313 10.7578 33.3869 10.7578C33.7472 10.7578 34.0809 10.7155 34.3882 10.6307C34.6955 10.5353 34.971 10.3976 35.2147 10.2175V9.00959C34.9498 8.90363 34.6743 8.82417 34.3882 8.77119C34.1021 8.71821 33.7949 8.69172 33.4664 8.69172C32.9684 8.69172 32.5764 8.78708 32.2903 8.9778C32.0148 9.15792 31.8771 9.40692 31.8771 9.72478Z" fill="#FF5454"/>
<path d="M39.0082 15.4146V3.89197H41.1538V4.57538C41.8319 4.0456 42.6159 3.78072 43.506 3.78072C44.29 3.78072 44.9999 3.97144 45.6357 4.35287C46.2714 4.73431 46.7747 5.24819 47.1455 5.89452C47.5269 6.53024 47.7177 7.24544 47.7177 8.0401C47.7177 8.83476 47.5269 9.55525 47.1455 10.2016C46.7641 10.8373 46.2502 11.3459 45.6039 11.7273C44.9575 12.0982 44.237 12.2836 43.4424 12.2836C43.0292 12.2836 42.6318 12.2306 42.2504 12.1247C41.869 12.0081 41.514 11.8439 41.1855 11.632V15.4146H39.0082ZM43.1563 10.44C43.6119 10.44 44.0198 10.334 44.3801 10.1221C44.7509 9.9102 45.0423 9.62412 45.2542 9.26388C45.4661 8.90363 45.5721 8.49571 45.5721 8.0401C45.5721 7.58449 45.4661 7.17657 45.2542 6.81632C45.0423 6.44548 44.7509 6.1594 44.3801 5.95809C44.0198 5.74618 43.6119 5.64022 43.1563 5.64022C42.7537 5.64022 42.3828 5.70909 42.0438 5.84684C41.7153 5.97398 41.4292 6.17 41.1855 6.43488V9.66121C41.4186 9.89431 41.7047 10.085 42.0438 10.2334C42.3934 10.3711 42.7643 10.44 43.1563 10.44Z" fill="#FF5454"/>
<path d="M49.0501 12.1723V1.04708L51.2275 0.570285V4.57538C51.8526 4.01382 52.6261 3.73304 53.5479 3.73304C54.1942 3.73304 54.7611 3.87608 55.2484 4.16215C55.7464 4.43764 56.1332 4.82437 56.4086 5.32236C56.6841 5.80975 56.8219 6.38191 56.8219 7.03883V12.1723H54.6445V7.35669C54.6445 6.81632 54.4909 6.3925 54.1836 6.08523C53.8763 5.76737 53.4578 5.60844 52.928 5.60844C52.5572 5.60844 52.2287 5.68261 51.9427 5.83094C51.6566 5.96868 51.4182 6.17 51.2275 6.43488V12.1723H49.0501Z" fill="#FF5454"/>
</svg>
